<svg width="77" height="23" viewBox="0 0 77 23" fill="none" xmlns="http://www.w3.org/2000/svg">
<path d="M50.8516 22.1534V14.5853H53.6233C54.1599 14.5853 54.6054 14.674 54.9577 14.8513C55.31 15.0263 55.5734 15.264 55.7479 15.5646C55.9224 15.8627 56.0102 16.1989 56.0102 16.5734C56.0102 16.8888 55.9528 17.1548 55.8368 17.3716C55.7208 17.586 55.5658 17.7585 55.3707 17.889C55.1788 18.0171 54.9674 18.1107 54.7354 18.1698V18.2438C54.9869 18.256 55.2319 18.3373 55.4704 18.4876C55.7121 18.6354 55.9116 18.8461 56.0698 19.1195C56.227 19.393 56.3061 19.7255 56.3061 20.1173C56.3061 20.5041 56.2151 20.8515 56.033 21.1594C55.853 21.4649 55.5744 21.7075 55.1972 21.8873C54.82 22.0648 54.3387 22.1534 53.7523 22.1534H50.8516ZM51.993 21.1742H53.6417C54.188 21.1742 54.5804 21.0683 54.8167 20.8564C55.0531 20.6445 55.1712 20.3796 55.1712 20.0619C55.1712 19.8229 55.1116 19.6036 54.9902 19.404C54.8699 19.2045 54.6975 19.0457 54.4731 18.9274C54.2509 18.8092 53.9875 18.75 53.6818 18.75H51.993V21.1742ZM51.993 17.8594H53.5236C53.7794 17.8594 54.0103 17.8102 54.214 17.7116C54.4211 17.6131 54.5848 17.4751 54.7062 17.2978C54.8287 17.1178 54.8905 16.906 54.8905 16.6621C54.8905 16.3493 54.781 16.0869 54.562 15.875C54.3431 15.6631 54.0059 15.5572 53.5528 15.5572H51.993V17.8594ZM57.9722 22.1534V14.5853H62.7179V15.5683H59.1147V17.8742H62.4696V18.8535H59.1147V21.1705H62.7612V22.1534H57.9722ZM64.1812 15.5683V14.5853H70.039V15.5683H67.6771V22.1534H66.5389V15.5683H64.1812ZM71.3908 22.1534H70.1778L72.9018 14.5853H74.221L76.944 22.1534H75.7321L73.5923 15.96H73.5338L71.3908 22.1534ZM71.5935 19.1897H75.5251V20.1506H71.5935V19.1897Z" fill="#97A3B7"/>
<path d="M0 22.5075V0H8.02265C9.77373 0 11.2245 0.318714 12.3747 0.956142C13.5249 1.59355 14.3859 2.46543 14.9574 3.57176C15.5289 4.67075 15.8145 5.90896 15.8145 7.28638C15.8145 8.67105 15.5252 9.91656 14.9463 11.023C14.3748 12.1219 13.5104 12.9939 12.3528 13.6386C11.2025 14.276 9.75543 14.5947 8.01178 14.5947H2.49465V11.7153H7.70403C8.81025 11.7153 9.70779 11.5249 10.3965 11.1438C11.0852 10.7556 11.5907 10.2281 11.9132 9.56133C12.2356 8.89457 12.3966 8.13631 12.3966 7.28638C12.3966 6.43647 12.2356 5.68183 11.9132 5.02243C11.5907 4.36303 11.0816 3.84651 10.3856 3.47284C9.69692 3.09918 8.78832 2.91235 7.66001 2.91235H3.39583V22.5075H0Z" fill="#97A3B7"/>
<path d="M19.5303 22.5077V5.62705H22.7064V8.30856H22.8823C23.19 7.40009 23.7321 6.68573 24.5087 6.16556C25.2927 5.63802 26.1792 5.37427 27.1684 5.37427C27.3734 5.37427 27.6152 5.3816 27.8938 5.39626C28.179 5.41091 28.4032 5.42922 28.5647 5.4512V8.59439C28.4328 8.55763 28.1971 8.51741 27.8609 8.4734C27.5236 8.42214 27.1867 8.39659 26.8496 8.39659C26.073 8.39659 25.3805 8.56142 24.7724 8.8911C24.1718 9.21352 23.6954 9.66402 23.3438 10.2428C22.992 10.8143 22.8163 11.4664 22.8163 12.1991V22.5077H19.5303Z" fill="#97A3B7"/>
<path d="M37.9153 22.8484C36.3328 22.8484 34.9515 22.4856 33.7712 21.7603C32.5926 21.035 31.6761 20.0203 31.0234 18.7161C30.3723 17.4119 30.0459 15.888 30.0459 14.1443C30.0459 12.3932 30.3723 10.8619 31.0234 9.55044C31.6761 8.23899 32.5926 7.22057 33.7712 6.49524C34.9515 5.7699 36.3328 5.40723 37.9153 5.40723C39.4977 5.40723 40.879 5.7699 42.0576 6.49524C43.2379 7.22057 44.1527 8.23899 44.8055 9.55044C45.4582 10.8619 45.783 12.3932 45.783 14.1443C45.783 15.888 45.4582 17.4119 44.8055 18.7161C44.1527 20.0203 43.2379 21.035 42.0576 21.7603C40.879 22.4856 39.4977 22.8484 37.9153 22.8484ZM37.9251 20.0898C38.9521 20.0898 39.801 19.8189 40.4752 19.2765C41.1494 18.7344 41.6472 18.0127 41.9703 17.1116C42.2999 16.2104 42.4648 15.2176 42.4648 14.1333C42.4648 13.0562 42.2999 12.0672 41.9703 11.166C41.6472 10.2574 41.1494 9.52852 40.4752 8.97895C39.801 8.42954 38.9521 8.15476 37.9251 8.15476C36.8933 8.15476 36.0361 8.42954 35.3537 8.97895C34.6795 9.52852 34.1784 10.2574 33.8487 11.166C33.5256 12.0672 33.3641 13.0562 33.3641 14.1333C33.3641 15.2176 33.5256 16.2104 33.8487 17.1116C34.1784 18.0127 34.6795 18.7344 35.3537 19.2765C36.0361 19.8189 36.8933 20.0898 37.9251 20.0898Z" fill="#97A3B7"/>
</svg>
